<svg width="18" height="16" viewBox="0 0 18 16" fill="none" xmlns="http://www.w3.org/2000/svg">
<path fill-rule="evenodd" clip-rule="evenodd" d="M0.600097 8.00019C0.600097 7.50314 1.00304 7.10019 1.5001 7.10019L14.2656 7.10019L9.2763 2.34894C8.918 2.00443 8.90683 1.43469 9.25135 1.0764C9.59586 0.718101 10.1656 0.70693 10.5239 1.05144L17.1239 7.35144C17.3004 7.52113 17.4001 7.75538 17.4001 8.00019C17.4001 8.24501 17.3004 8.47926 17.1239 8.64894L10.5239 14.9489C10.1656 15.2935 9.59586 15.2823 9.25135 14.924C8.90683 14.5657 8.918 13.996 9.2763 13.6514L14.2656 8.90019L1.5001 8.90019C1.00304 8.90019 0.600097 8.49725 0.600097 8.00019Z" fill="white"/>
</svg>
