<svg width="22" height="22" viewBox="0 0 22 22" fill="none" xmlns="http://www.w3.org/2000/svg">
<path d="M0.714355 10.9599C0.714355 12.6374 1.12619 14.2144 1.86949 15.6206L3.60721 13.8829C3.83824 13.6519 4.1898 13.6519 4.42083 13.8829C4.65186 14.1139 4.6619 14.4655 4.42083 14.7065L2.47217 16.6552C2.72328 17.0068 2.9744 17.3482 3.26569 17.6596L17.6697 3.26569C17.3482 2.9744 16.9967 2.71324 16.6552 2.47217L14.6865 4.44092C14.4554 4.67195 14.0938 4.6619 13.8628 4.44092C13.6318 4.20989 13.6318 3.85833 13.8628 3.61726L15.6106 1.87954C14.2144 1.12619 12.6273 0.714355 10.9498 0.714355C5.35498 0.714355 0.714355 5.35498 0.714355 10.9599ZM13.1496 5.97774L11.7735 7.35386C11.5425 7.58489 11.1808 7.57485 10.9498 7.35386C10.7289 7.12284 10.7188 6.75119 10.9498 6.53021L12.336 5.15409C12.567 4.93311 12.9286 4.92306 13.1496 5.15409C13.3806 5.38512 13.3806 5.74672 13.1496 5.97774ZM10.2467 8.89069L8.86056 10.2668C8.63958 10.4878 8.27797 10.4878 8.04695 10.2668C7.81592 10.0358 7.81592 9.67416 8.04695 9.44316L9.4231 8.06703C9.6541 7.836 10.0157 7.836 10.2467 8.06703C10.4677 8.28802 10.4777 8.66971 10.2467 8.89069ZM7.33378 11.7936L5.96771 13.1697C5.72664 13.4008 5.37507 13.3907 5.14404 13.1697C4.91302 12.9387 4.91302 12.5872 5.14404 12.3561L6.51012 10.9699C6.74114 10.7389 7.10274 10.7489 7.33378 10.9699C7.55476 11.201 7.57485 11.5625 7.33378 11.7936ZM10.9599 21.2054C16.5648 21.2054 21.2054 16.5548 21.2054 10.9599C21.2054 9.29247 20.7936 7.70543 20.0503 6.30922L18.3125 8.0369C18.0715 8.27797 17.73 8.26793 17.4989 8.0369C17.278 7.80588 17.2579 7.45431 17.4989 7.21324L19.4476 5.27462C19.2065 4.92306 18.9554 4.58154 18.6641 4.27016L4.26012 18.6641C4.58154 18.9454 4.92306 19.2065 5.26458 19.4476L7.23333 17.4789C7.4744 17.2277 7.82597 17.2479 8.05699 17.4789C8.28802 17.7099 8.29806 18.0514 8.05699 18.2925L6.29917 20.0503C7.70543 20.7836 9.28243 21.2054 10.9599 21.2054ZM16.7758 9.56367L15.4096 10.9498C15.1786 11.1808 14.817 11.1708 14.586 10.9498C14.365 10.7088 14.355 10.3572 14.586 10.1262L15.9622 8.75007C16.1932 8.51904 16.5448 8.51904 16.7758 8.75007C17.0168 8.97105 17.0068 9.33267 16.7758 9.56367ZM13.8729 12.4767L12.4967 13.8427C12.2657 14.0838 11.9041 14.0838 11.6731 13.8427C11.452 13.6217 11.442 13.2501 11.6731 13.0191L13.0592 11.653C13.2802 11.432 13.6519 11.432 13.8729 11.653C14.1039 11.884 14.1039 12.2356 13.8729 12.4767ZM10.9699 15.3796L9.58381 16.7556C9.35273 16.9767 9.00119 16.9867 8.77016 16.7556C8.53914 16.5246 8.53914 16.163 8.77016 15.932L10.1463 14.5558C10.3773 14.3248 10.7389 14.3449 10.9699 14.5558C11.191 14.797 11.201 15.1586 10.9699 15.3796Z" fill="#CBEA7B"/>
</svg>
