<svg width="68" height="68" viewBox="0 0 68 68" fill="none" xmlns="http://www.w3.org/2000/svg">
<rect width="68" height="68" rx="8" fill="#CBEA7B"/>
<path d="M24.9041 51.3216H42.6831C46.1318 51.3216 47.8728 49.5637 47.8728 46.0816V20.6854C47.8728 17.1865 46.1485 15.4287 42.6831 15.4287H38.4309C37.8616 15.4287 37.4766 15.8305 37.4766 16.4332C37.4766 16.5169 37.4766 16.6006 37.4766 16.6676C37.4766 18.8439 36.0034 20.1497 33.7936 20.1497C31.5838 20.1497 30.1106 18.8439 30.1106 16.6676C30.1106 16.6006 30.1106 16.5169 30.1106 16.4332C30.1106 15.8305 29.7255 15.4287 29.1563 15.4287H24.9041C21.4387 15.4287 19.7144 17.1865 19.7144 20.6854V46.0816C19.7144 49.5637 21.4554 51.3216 24.9041 51.3216ZM27.4487 27.9008C26.8461 27.9008 26.4108 27.4488 26.4108 26.8461C26.4108 26.2769 26.8461 25.8249 27.4487 25.8249H40.1552C40.7412 25.8249 41.1764 26.2769 41.1764 26.8461C41.1764 27.4488 40.7412 27.9008 40.1552 27.9008H27.4487ZM27.4487 33.8439C26.8461 33.8439 26.4108 33.3919 26.4108 32.8227C26.4108 32.2367 26.8461 31.7847 27.4487 31.7847H33.4588C34.0615 31.7847 34.4968 32.2367 34.4968 32.8227C34.4968 33.3919 34.0615 33.8439 33.4588 33.8439H27.4487Z" fill="#262626"/>
</svg>
