<svg width="68" height="68" viewBox="0 0 68 68" fill="none" xmlns="http://www.w3.org/2000/svg">
<rect width="68" height="68" rx="8" fill="#CBEA7B"/>
<path d="M28.3701 54.5579H38.5989C44.4248 54.5579 47.3044 51.6114 47.2541 45.7186C47.1871 38.9887 47.1536 34.1003 46.9862 30.434C46.5008 19.6528 43.4706 16.4887 33.4929 16.4887C23.5152 16.4887 20.4683 19.6528 19.9829 30.434C19.8154 34.1003 19.782 38.9887 19.715 45.7186C19.6648 51.6114 22.5442 54.5579 28.3701 54.5579ZM27.8846 47.9117C26.4449 47.9117 25.5242 46.9741 25.5242 45.568V36.9296C25.5242 35.5066 26.4449 34.569 27.8846 34.569H39.1012C40.5242 34.569 41.4449 35.5066 41.4449 36.9296V45.568C41.4449 46.9741 40.5242 47.9117 39.1012 47.9117H27.8846ZM25.5242 41.0144H41.4449V39.0221H25.5242V41.0144ZM33.4929 12.5713C30.2786 12.5713 28.0186 14.7476 28.0186 17.7108H30.3791C30.3791 16.0869 31.6514 14.9318 33.4929 14.9318C35.3176 14.9318 36.6068 16.0869 36.6068 17.7108H38.9672C38.9672 14.7476 36.6905 12.5713 33.4929 12.5713Z" fill="#262626"/>
</svg>
