<svg width="68" height="68" viewBox="0 0 68 68" fill="none" xmlns="http://www.w3.org/2000/svg">
<rect width="68" height="68" rx="8" fill="#CBEA7B"/>
<g clip-path="url(#clip0_61_347)">
<path d="M23.561 16.701C22.7407 18.5927 22.3557 20.4844 22.3557 22.326C22.3557 28.4365 26.6748 33.4421 33.4047 33.4421C40.1347 33.4421 44.4539 28.4365 44.4539 22.326C44.4539 20.4844 44.0689 18.5927 43.2653 16.701C42.897 15.8974 41.9427 15.7802 41.3066 16.4331L37.5566 20.2501L34.359 16.115C33.84 15.4454 32.9694 15.4454 32.4673 16.115L29.2697 20.2501L25.503 16.4331C24.8668 15.7802 23.9126 15.8974 23.561 16.701ZM32.0654 50.4845C32.0654 51.2378 32.6514 51.7401 33.4047 51.7401C42.0599 51.7401 50.0119 46.3996 52.6236 38.8996C52.9919 37.8784 52.6067 37.2255 51.5186 37.2255C42.9639 37.2255 36.8031 42.2478 34.3256 48.5926L34.7609 49.1619V31.7512H32.0654V50.4845ZM29.772 44.0894C26.6246 40.0045 21.5856 37.2255 15.2407 37.2255C14.1525 37.2255 13.7675 37.8784 14.1358 38.8996C16.3791 45.3952 22.6068 50.2835 29.9059 51.4386C29.8221 51.1541 29.772 50.8192 29.772 50.4845V44.0894Z" fill="#262626"/>
</g>
<defs>
<clipPath id="clip0_61_347">
<rect width="38.7593" height="36.3114" fill="white" transform="translate(14 15.4287)"/>
</clipPath>
</defs>
</svg>
