<svg width="68" height="68" viewBox="0 0 68 68" fill="none" xmlns="http://www.w3.org/2000/svg">
<rect width="68" height="68" rx="8" fill="#CBEA7B"/>
<path d="M28.3091 52.8226C29.7153 52.8226 30.5858 52.0357 30.5691 50.663L30.2343 31.8627C30.2343 31.2769 30.4854 30.8416 31.0044 30.6071C33.2142 29.6361 34.1684 28.615 34.0512 25.6853L33.5825 15.4062C33.549 14.6696 33.1137 14.2511 32.4274 14.2511C31.7745 14.2511 31.3727 14.6864 31.3727 15.4397L31.4899 25.4342C31.4899 26.0201 31.1216 26.3884 30.5691 26.3884C29.9999 26.3884 29.5981 26.0368 29.5981 25.4844L29.4307 15.1384C29.414 14.4185 28.9954 14 28.3091 14C27.6227 14 27.2209 14.4185 27.2041 15.1384L27.0367 25.4844C27.0367 26.0368 26.6349 26.3884 26.0658 26.3884C25.5133 26.3884 25.1283 26.0201 25.1283 25.4342L25.2454 15.4397C25.2454 14.6864 24.8604 14.2511 24.1908 14.2511C23.5044 14.2511 23.0691 14.6696 23.0356 15.4062L22.5836 25.6853C22.4497 28.615 23.4039 29.6361 25.6137 30.6071C26.1327 30.8416 26.3838 31.2769 26.3838 31.8627L26.0658 50.663C26.049 52.0357 26.9028 52.8226 28.3091 52.8226ZM41.4006 38.2243L41.049 50.5793C40.9989 52.0357 41.886 52.8226 43.2756 52.8226C44.6986 52.8226 45.5691 52.1027 45.5691 50.7634V15.2556C45.5691 14.4018 44.9831 14 44.3804 14C43.7443 14 43.3259 14.3348 42.7901 15.1217C40.0947 18.9051 38.3203 25.9866 38.3203 32.683V33.5033C38.3203 34.6584 38.7387 35.5123 39.5759 36.0647L40.5636 36.7344C41.1661 37.1529 41.434 37.6217 41.4006 38.2243Z" fill="#262626"/>
</svg>
