<svg width="68" height="68" viewBox="0 0 68 68" fill="none" xmlns="http://www.w3.org/2000/svg">
<rect width="68" height="68" rx="8" fill="#CBEA7B"/>
<path d="M17.5326 41.2249C18.7327 41.2249 19.6513 40.3062 19.6513 39.1359V27.9348C19.6513 26.7495 18.7327 25.816 17.5326 25.816C16.3473 25.816 15.4287 26.7495 15.4287 27.9348V39.1359C15.4287 40.3062 16.3473 41.2249 17.5326 41.2249ZM24.5703 44.4994C26.5409 44.4994 27.9188 43.1807 27.9188 41.3138V25.7716C27.9188 23.8899 26.5409 22.5713 24.5703 22.5713C22.6146 22.5713 21.2367 23.8899 21.2367 25.7716V41.3138C21.2367 43.1807 22.6146 44.4994 24.5703 44.4994ZM29.6375 36.3948H38.8383V30.6758H29.6375V36.3948ZM43.9054 44.4994C45.876 44.4994 47.254 43.1807 47.254 41.3138V25.7716C47.254 23.8899 45.876 22.5713 43.9054 22.5713C41.9498 22.5713 40.5718 23.8899 40.5718 25.7716V41.3138C40.5718 43.1807 41.9498 44.4994 43.9054 44.4994ZM50.7951 41.2249C51.9804 41.2249 52.9137 40.3062 52.9137 39.1359V27.9348C52.9137 26.7495 51.9804 25.816 50.7951 25.816C49.6098 25.816 48.6911 26.7495 48.6911 27.9348V39.1359C48.6911 40.3062 49.6098 41.2249 50.7951 41.2249Z" fill="#262626"/>
</svg>
