<svg width="34" height="26" viewBox="0 0 34 26" fill="none" xmlns="http://www.w3.org/2000/svg">
<path d="M0.529297 25.9409V18.5356C0.529297 16.406 0.918088 14.1916 1.69567 11.8926C2.49681 9.56936 3.58072 7.37922 4.94737 5.32219C6.33759 3.24095 7.89276 1.48642 9.61286 0.0585938L15.5508 4.01536C14.1605 6.1692 12.9942 8.41984 12.0516 10.7673C11.1327 13.0905 10.685 15.6558 10.7085 18.463V25.9409H0.529297ZM18.449 25.9409V18.5356C18.449 16.406 18.8378 14.1916 19.6154 11.8926C20.4165 9.56936 21.5004 7.37922 22.8671 5.32219C24.2573 3.24095 25.8125 1.48642 27.5326 0.0585938L33.4705 4.01536C32.0803 6.1692 30.9139 8.41984 29.9714 10.7673C29.0524 13.0905 28.6047 15.6558 28.6283 18.463V25.9409H18.449Z" fill="#356554"/>
</svg>
