<svg width="200" height="200" viewBox="0 0 200 200" fill="none" xmlns="http://www.w3.org/2000/svg">
<path d="M75.1057 61.1103C52.2069 38.8304 67.9803 0 99.9295 0C131.879 0 147.652 38.8304 124.753 61.1103L99.9295 85.2632L75.1057 61.1103Z" fill="#EEF8D3"/>
<path d="M75.2497 138.89C52.3509 161.17 68.1243 200 100.074 200C132.023 200 147.796 161.17 124.897 138.89L100.074 114.737L75.2497 138.89Z" fill="#EEF8D3"/>
<path d="M61.1103 124.894C38.8304 147.793 0 132.02 0 100.07C0 68.1212 38.8304 52.3479 61.1103 75.2467L85.2632 100.07L61.1103 124.894Z" fill="#EEF8D3"/>
<path d="M138.89 124.75C161.17 147.649 200 131.876 200 99.9264C200 67.9772 161.17 52.2038 138.89 75.1026L114.737 99.9264L138.89 124.75Z" fill="#EEF8D3"/>
</svg>
