<svg width="34" height="34" viewBox="0 0 34 34" fill="none" xmlns="http://www.w3.org/2000/svg">
<path fill-rule="evenodd" clip-rule="evenodd" d="M17.0002 25.5C16.296 25.5 15.7252 24.9292 15.7252 24.225L15.7252 12.9405L12.3943 16.6087C11.9062 17.1163 11.0991 17.1321 10.5915 16.6441C10.0839 16.156 10.0681 15.3489 10.5561 14.8413L16.0811 8.89129C16.3215 8.64129 16.6534 8.5 17.0002 8.5C17.347 8.5 17.6789 8.64129 17.9193 8.89129L23.4443 14.8413C23.9323 15.3489 23.9165 16.156 23.4089 16.6441C22.9013 17.1321 22.0942 17.1163 21.6061 16.6087L18.2752 12.9405V24.225C18.2752 24.9292 17.7044 25.5 17.0002 25.5Z" fill="white"/>
</svg>
