<svg width="68" height="68" viewBox="0 0 68 68" fill="none" xmlns="http://www.w3.org/2000/svg">
<rect width="68" height="68" rx="8" fill="#CBEA7B"/>
<g clip-path="url(#clip0_61_355)">
<path d="M51.2504 25.7807L38.24 19.827C36.8844 19.2157 35.7813 18.9233 34.6783 18.9499C33.5885 18.9233 32.4855 19.2157 31.1167 19.827L18.1194 25.7807C17.2689 26.1662 16.8569 26.8439 16.8569 27.5217C16.8569 28.1994 17.2689 28.864 18.1194 29.2627L23.5948 31.7611L32.0071 27.8141C31.9274 27.7211 31.9007 27.6147 31.9007 27.5217C31.9007 26.6844 33.3095 26.0465 34.7314 26.0465C36.1667 26.0465 37.5489 26.6844 37.5489 27.5217C37.5489 28.3855 36.1667 29.0367 34.7314 29.0367C34.2929 29.0367 33.8544 28.9702 33.4689 28.864L25.442 32.6249L31.1167 35.2297C32.4855 35.8542 33.5885 36.1201 34.6783 36.1068C35.7813 36.1201 36.8844 35.8542 38.24 35.2297L51.2504 29.2627C52.101 28.864 52.513 28.1994 52.513 27.5217C52.513 26.8439 52.101 26.1662 51.2504 25.7807ZM25.3889 34.5918V42.6719C27.6215 44.0274 30.811 44.8513 34.6783 44.8513C42.5192 44.8513 47.5692 41.4891 47.5692 37.5155V32.9438L38.9974 36.8643C37.4425 37.582 36.0339 37.9408 34.6783 37.9275C33.336 37.9408 31.914 37.582 30.3591 36.8643L25.3889 34.5918ZM21.8007 32.9438V37.5155C21.8007 38.6717 22.4651 40.1069 23.6612 41.3296V33.8077L21.8007 32.9438ZM23.6612 45.755H25.3889V42.6719C24.7244 42.2732 24.1396 41.8214 23.6612 41.3296V45.755ZM22.6113 45.8481V49.3433C22.6113 50.3932 23.2891 51.0709 24.339 51.0709H24.6978C25.7477 51.0709 26.4255 50.3932 26.4255 49.3433V45.8481C26.4255 44.7982 25.7477 44.1204 24.6978 44.1204H24.339C23.2891 44.1204 22.6113 44.7982 22.6113 45.8481Z" fill="#262626"/>
</g>
<defs>
<clipPath id="clip0_61_355">
<rect width="40" height="40" fill="white" transform="translate(14 14)"/>
</clipPath>
</defs>
</svg>
