<svg width="195" height="45" viewBox="0 0 195 45" fill="none" xmlns="http://www.w3.org/2000/svg">
<path d="M16.9196 13.7498C11.7673 8.73683 15.3164 0 22.5049 0C29.6935 0 33.2425 8.73684 28.0903 13.7498L22.5049 19.1842L16.9196 13.7498Z" fill="#CBEA7B"/>
<path d="M16.952 31.2502C11.7997 36.2632 15.3488 45 22.5373 45C29.7259 45 33.2749 36.2632 28.1227 31.2502L22.5373 25.8158L16.952 31.2502Z" fill="#CBEA7B"/>
<path d="M13.7706 28.1012C8.75765 33.2534 0.020813 29.7044 0.020813 22.5158C0.020813 15.3273 8.75765 11.7782 13.7706 16.9305L19.205 22.5158L13.7706 28.1012Z" fill="#CBEA7B"/>
<path d="M31.271 28.0687C36.284 33.2209 45.0208 29.6719 45.0208 22.4834C45.0208 15.2948 36.284 11.7458 31.271 16.898L25.8366 22.4834L31.271 28.0687Z" fill="#CBEA7B"/>
<path d="M65.0194 25.9424V14.6249H68.4394V30.3749H63.5119L56.6044 19.0799H56.2219V30.3749H52.8019V14.6249H57.4144V14.6474H57.7294L64.6144 25.9424H65.0194Z" fill="white"/>
<path d="M80.8819 17.7524H84.3019V30.3749H80.8819V28.5299H80.7244C79.9144 29.6549 78.7669 30.3749 76.4944 30.3749C71.1619 30.3749 71.0269 25.9199 71.0269 24.0749V17.7524H74.4244V24.0749C74.4244 25.0649 74.1994 27.4499 77.4844 27.4499C80.4319 27.4499 80.8819 25.5599 80.8819 23.8499V17.7524Z" fill="white"/>
<path d="M91.5469 20.6774V25.1549V25.4249C91.5469 27.2474 92.3569 26.9999 95.6419 26.8199V30.1499C95.6419 30.1499 94.9669 30.3749 91.5469 30.3749C88.1044 30.3749 88.1044 27.5624 88.1044 25.7399V20.6774H86.4394V17.7974H88.1044V14.1524H91.5469V17.7974H95.6419V20.6774H91.5469Z" fill="white"/>
<path d="M105.275 17.7524C106.175 17.7524 106.917 17.9549 107.502 18.0899L106.962 21.3074C106.647 21.2174 105.77 21.0374 104.69 21.0374C102.147 21.0374 101.405 23.0174 101.405 24.7274V30.3749H97.9848V17.7524H101.405V19.6199H101.607C102.327 18.4049 103.092 17.7524 105.275 17.7524Z" fill="white"/>
<path d="M112.73 30.3749H109.332V17.8424H112.73V30.3749ZM112.73 16.9424H109.332V13.8824H112.73V16.9424Z" fill="white"/>
<path d="M120.184 20.6774V25.1549V25.4249C120.184 27.2474 120.994 26.9999 124.279 26.8199V30.1499C124.279 30.1499 123.604 30.3749 120.184 30.3749C116.742 30.3749 116.742 27.5624 116.742 25.7399V20.6774H115.077V17.7974H116.742V14.1524H120.184V17.7974H124.279V20.6774H120.184Z" fill="white"/>
<path d="M129.954 30.3749H126.556V17.8424H129.954V30.3749ZM129.954 16.9424H126.556V13.8824H129.954V16.9424Z" fill="white"/>
<path d="M139.321 17.5274C143.168 17.5274 146.363 19.5749 146.363 23.9624C146.363 28.3949 143.168 30.3749 139.321 30.3749C135.496 30.3749 132.301 28.3274 132.301 23.9624C132.301 19.6199 135.496 17.5274 139.321 17.5274ZM139.321 27.2699C141.481 27.2699 143.011 26.2349 143.011 23.9624C143.011 21.6224 141.481 20.6549 139.321 20.6549C137.183 20.6549 135.653 21.5774 135.653 23.9624C135.653 26.3249 137.183 27.2699 139.321 27.2699Z" fill="white"/>
<path d="M156.466 17.7524C161.798 17.7524 161.933 22.2299 161.933 24.0749V30.3749H158.536V24.0749C158.536 23.0849 158.738 20.6999 155.476 20.6999C152.506 20.6999 152.078 22.5899 152.078 24.2999V30.3749H148.658V17.7524H152.078V19.6199H152.236C153.046 18.4949 154.193 17.7524 156.466 17.7524Z" fill="white"/>
<path d="M167.908 30.3749H164.51V17.8424H167.908V30.3749ZM167.908 16.9424H164.51V13.8824H167.908V16.9424Z" fill="white"/>
<path d="M176.74 22.7249C179.597 23.1524 182.837 23.6474 182.837 26.6399C182.837 29.7674 180.587 30.3749 176.717 30.3749C173.86 30.3749 171.902 29.8574 170.89 28.8449C170.012 27.9674 170.012 26.9099 170.035 26.2574V26.0099H173.545V26.1224C173.545 27.2024 174.355 27.6974 176.627 27.6974C178 27.6974 179.305 27.5174 179.305 26.6849C179.305 25.7399 178.09 25.5599 176.717 25.4024C176.537 25.3799 176.357 25.3574 176.177 25.3349C172.555 24.8624 170.305 24.0524 170.305 21.5324C170.305 19.7774 171.317 17.6849 176.177 17.6849C181.397 17.6849 182.5 20.0024 182.5 21.9374V22.0499H179.012V21.9374C179.012 20.9474 178.157 20.4074 176.177 20.4074C174.265 20.4074 173.86 21.1049 173.86 21.4874C173.86 22.0499 174.242 22.3649 176.447 22.7024L176.74 22.7249Z" fill="white"/>
<path d="M189.522 20.6774V25.1549V25.4249C189.522 27.2474 190.332 26.9999 193.617 26.8199V30.1499C193.617 30.1499 192.942 30.3749 189.522 30.3749C186.08 30.3749 186.08 27.5624 186.08 25.7399V20.6774H184.415V17.7974H186.08V14.1524H189.522V17.7974H193.617V20.6774H189.522Z" fill="white"/>
</svg>
